<svg xmlns="http://www.w3.org/2000/svg" xmlns:xlink="http://www.w3.org/1999/xlink" width="1024" height="301" xml:space="preserve">
  <path fill-rule="evenodd" clip-rule="evenodd" fill="#DC002E" d="M921 83.68c-46.14 4.86-85.83 31.28-85.83 82.12s39.7 68.92 85.84 64.08c46.18-4.85 86.71-31.3 85.86-82.13-.78-46.76-39.68-68.92-85.86-64.07m-28.51 76.1c0-19.52 5-43.4 28.5-45.87 23.54-2.48 28.53 20.36 28.53 39.88 0 19.51-4.99 43.39-28.52 45.87-23.51 2.46-28.51-20.36-28.51-39.88zm-65.06 41.27c-4.9.36-9.24.51-14.34.6-7.76.14-10.02-6.27-10.57-12.17-.38-3.94 0-63.75 0-63.75l27.83-.5a4.65 4.65 0 0 0 4.49-4.56v-24c0-2.49-2.02-3.97-4.5-3.93h-27.82v-36.4c0-2.44-1.94-4.14-6.25-3.07l-44.56 8.51c-3.46.6-5.12 2.3-5.12 4.79l.06 27.14-23.54.4c-.4.01-4.5 2.08-4.5 4.53l-.01 24.06a4.41 4.41 0 0 0 4.5 4.41l23.55-.42s-.33 71.45.04 75.49c2.75 29.73 23.73 33.18 57.11 32.59 7.02-.12 13.94-.65 23.9-2.31 3.53-.56 5.35-2.5 5.35-4.98l-.02-22.95c0-1.97-1.26-3.84-5.6-3.48zm-176.41 21.4c0 2.5 2 4.63 4.49 4.8l46.87 3.29a4.14 4.14 0 0 0 4.48-4.19V97.42a4.92 4.92 0 0 0-4.48-4.84l-46.87-3.27a4.14 4.14 0 0 0-4.5 4.2v128.93zm-20.97-26.75c-4.89-.23-9.22-.9-14.31-1.35-15.25-1.36-11.05-38.54-11.05-38.54v-38.7l28.28 2.93a4 4 0 0 0 4.5-4.02l.01-23.97c0-2.5-2.02-4.72-4.51-4.98l-27.83-2.93.02-39.48c0-2.46-1.96-5.17-6.27-4.62l-44.55 9.24c-3.34.74-5.13 2.44-5.13 4.93l.07 24.07-22.78-2.59a3.95 3.95 0 0 0-4.49 3.96v24.08c0 2.48 2.04 4.7 4.5 4.97l22.77 2.57v61.8c-.32 41.87 20 49.37 57.93 53.37 7.02.72 13.15 1.13 23.12.7 3.53-.14 5.34-1.86 5.34-4.33v-22.94c0-2-1.28-4.02-5.62-4.17zm-213.02-79.2 51.75 3.26c0-7.41-2.36-14.99-6.76-21.03-4.42-6.05-10.88-10.04-19.4-10.01-19.42-.4-24.13 12.23-25.6 27.78zm104.01 25.64c.17 3.93-4.72 8.88-8.08 8.68l-97.11-6.35c-.29 17.85 4.71 34.32 25.58 35.62 13.74.88 22.92-4.66 26.31-14.56.86-2.74 2.27-4.2 4.76-4.04l41.51 2.73c2.63.17 4.36 4.73 3.38 8.6-3.72 14.37-12.41 22.43-24.79 28.4-12.94 6.87-29.42 8.89-46.75 7.77-60.02-3.81-82.63-28.82-82.63-82.95 0-43.69 34.14-65.1 78.59-63.41 57.22 2.15 77.85 32.41 79.23 79.5zM271.62 87.88c-23.52.8-27.05 26.22-27.05 43.8s3.53 42.75 27.05 41.92c23.53-.8 27.06-26.23 27.06-43.8 0-17.6-3.53-42.75-27.06-41.92zm-33.06 164.14-46.9 1.65a4.31 4.31 0 0 1-4.5-4.35V67.65c0-2.54 2-4.6 4.5-4.7l46.9-1.63a4.3 4.3 0 0 1 4.47 4.39v6.08c14.68-11.7 28.82-15.79 48.51-16.45 43.81-1.42 62.92 32.7 62.92 68.99 0 40.4-21.76 75.78-69.09 77.42-16.46.58-29.7-2.04-41.75-10.26l-.59 55.87c0 2.48-2 4.58-4.47 4.66zM119.58 206.9a4.15 4.15 0 0 1-4.45-4.22l-.04-15s-16.7 24.6-50.3 26.35C23.75 216.2.48 183.52.48 144.44c0-42.6 25.21-74.48 68.2-77.07 20.76-1.26 33.72 2.22 45.75 13.24l.69-5.47c.67-3.69 1.97-6.36 5.04-6.54l46.25-2.82a4.19 4.19 0 0 1 4.42 4.29l-.04 129.24c0 2.48-1.99 4.62-4.48 4.78l-46.74 2.82zM85.67 95.88C61.96 97.3 58.4 123.1 58.4 140.9c0 17.8 3.56 43.17 27.27 41.74 23.7-1.45 27.26-27.24 27.26-45.04 0-17.79-3.55-43.16-27.26-41.72z"/>
  <defs>
    <path id="a" d="M921 83.68c-46.14 4.85-85.83 31.28-85.83 82.12s39.7 68.92 85.84 64.07c46.16-4.85 86.18-30.63 85.86-82.12-.28-46.98-39.7-68.92-85.86-64.07m-28.51 76.09c0-19.5 5-43.4 28.5-45.86 23.53-2.48 28.53 20.36 28.53 39.86 0 19.53-5 43.4-28.52 45.87-23.51 2.48-28.51-20.34-28.51-39.87zm-65.08 41.28c-4.87.35-9.22.51-14.32.6-7.76.13-10.02-6.27-10.56-12.17-.38-3.94 0-63.77 0-63.77l27.82-.48a4.64 4.64 0 0 0 4.49-4.57l.01-24c0-2.48-2.03-3.97-4.5-3.93h-27.83V56.34c0-2.44-1.94-4.14-6.25-3.08l-44.56 8.52c-3.46.6-5.12 2.3-5.12 4.79l.06 27.14-23.54.4a4.57 4.57 0 0 0-4.5 4.53l-.01 24.06a4.43 4.43 0 0 0 4.5 4.41l23.57-.13s-.35 71.15.02 75.2c2.75 29.72 23.73 33.17 57.11 32.59 7.02-.12 13.94-.65 23.9-2.31 3.54-.56 5.35-2.52 5.35-5l-.02-22.93c0-1.97-1.26-3.84-5.62-3.48zm-176.4 21.4c0 2.48 2.01 4.61 4.5 4.8l46.87 3.27a4.12 4.12 0 0 0 4.48-4.18V97.4a4.92 4.92 0 0 0-4.48-4.82l-46.87-3.27a4.15 4.15 0 0 0-4.5 4.18v128.95zm-20.96-26.75c-4.89-.25-9.2-1.05-14.31-1.35-12.85-.79-11.05-26.95-11.05-26.95v-50.31l28.28 2.95a4.01 4.01 0 0 0 4.5-4.02l.01-23.97c0-2.5-2.02-4.72-4.51-5l-27.83-2.92V44.65c0-2.45-1.94-5.16-6.25-4.61l-44.55 9.24c-3.4.68-5.13 2.44-5.13 4.93l.07 24.06-22.78-2.58a3.94 3.94 0 0 0-4.49 3.96l-.01 24.07c0 2.48 2.05 4.7 4.5 4.98l22.78 2.56v61.8c-.55 41.08 19.22 49.38 57.15 53.36 7.03.74 13.93 1.15 23.9.7 3.53-.12 5.34-1.85 5.34-4.31v-22.94c0-2-1.27-4.02-5.62-4.17zm-213.02-79.2 51.75 3.26c0-7.43-2.36-14.99-6.76-21.04-4.42-6.04-10.88-10.03-19.4-10.01-19.42-.38-24.13 12.24-25.6 27.8zm103.98 25.03c.08 5.38-4.92 9.42-8.05 9.3l-97.11-6.36c-.3 17.83 4.7 34.32 25.58 35.62 13.74.86 22.92-4.67 26.31-14.57.86-2.74 2.27-4.19 4.76-4.03l41.51 2.73c2.63.16 5.67 4.82 4.41 8.6-4.83 14.37-13.44 22.42-25.82 28.4a89 89 0 0 1-46.75 10.1c-59.1-3.7-82.63-31.15-82.63-85.28 0-43.69 34.98-66.22 79.4-63.43 57.49 3.6 76.84 31.1 78.4 78.92zm-249.4-53.67c-23.52.82-27.05 26.24-27.05 43.81 0 17.6 3.53 42.76 27.05 41.93 23.53-.82 27.06-26.23 27.06-43.8 0-17.6-3.53-42.75-27.06-41.94zm-33.06 164.16-46.9 1.65a4.31 4.31 0 0 1-4.5-4.36V67.65c0-2.54 2-4.6 4.5-4.7l46.9-1.63a4.3 4.3 0 0 1 4.47 4.38v6.09c14.68-11.7 28.82-15.79 48.51-16.45 43.81-1.42 62.92 32.7 62.92 68.99 0 40.38-21.76 75.78-69.09 77.42-16.46.59-29.7-2.03-41.75-10.26l-.59 55.87c0 2.48-2 4.58-4.47 4.66zM119.58 206.9a4.16 4.16 0 0 1-4.45-4.23l-.04-15s-16.7 24.6-50.3 26.36C23.64 216.2.48 183.52.48 144.44c0-42.62 25.21-74.48 68.2-77.07 20.76-1.26 33.72 2.21 45.75 13.23l.69-5.46c.67-3.7 1.97-6.36 5.04-6.55l46.25-2.81a4.19 4.19 0 0 1 4.42 4.28l-.04 129.25c0 2.48-1.99 4.61-4.48 4.78l-46.74 2.82zM85.67 95.88C61.96 97.3 58.4 123.09 58.4 140.9c0 17.8 3.56 43.17 27.27 41.74 23.7-1.45 27.26-27.24 27.26-45.04s-3.55-43.17-27.26-41.72z"/>
  </defs>
  <clipPath id="b">
    <use xlink:href="#a" overflow="visible"/>
  </clipPath>
  <g clip-path="url(#b)" fill-rule="evenodd" clip-rule="evenodd">
    <path fill="#EB6A39" d="M16.6 193.85c-14.75-12.68-20.48-26.4-20.48-49.1 0-42.6 28.94-78.37 71.93-80.97 20.75-1.25 33.02 1.91 45.36 12.77l1.06-4.79s.57-6.59 5.06-6.76l46.25-2.81c2.39-.15 5.48 5.22 5.3 7.74l.46 2-46.26 2.73c-3.07.2-4.38 3.33-5.2 6.87l-.91 4.68C106.8 75.35 91.7 71.79 70.95 73.04c-43 2.6-66.06 34.5-66.06 77.08 0 19.52 1.75 30.68 11.71 43.73"/>
    <path fill="#A60B16" d="M85.67 95.91c-23.71 1.42-27.27 27.22-27.27 45.03 0 10.56 2.33 25.4 8.28 34.12-10.39-7.88-14.24-26.67-14.24-40.07 0-17.8 3-43.34 26.72-44.78 9.65-.58 17.8 3.85 21.9 9.85a26.72 26.72 0 0 0-15.4-4.15M164.85 193.79l.03-121.46 5.55-7c.51.85 1.23 4.08 1.2 5.16l.11 129.25c0 2.49-2.92 5.15-5.42 5.3l-46.73 2.83c-2.47.14-4.72-2.27-4.72-4.75l-.01-2.16c.37.45 1.26.66 2.33.6l43.17-3c2.5-.15 4.5-2.3 4.5-4.77M114.37 194.97C105.2 205.4 87.8 215.56 64.78 217c-21.43 1.38-41.12-8.53-48.97-24.15 10.63 9.1 26.13 16.18 43.96 15.04 23.02-1.46 38.67-9.2 48.42-18.86 2.95-2.94 6.97-7.16 6.97-7.16l-.07 12.84-.72.26M271.63 90.13c-23.53.83-25.68 24.81-25.68 42.4 0 10.5 3.64 26.04 7.31 34.3-11.6-8.72-14.83-27.13-14.83-40.45 0-17.6 3.3-42.7 26.82-43.5 9.48-.34 16.68 4.17 21.91 10.54-3.57-2.38-9.82-3.48-15.53-3.3"/>
    <path fill="#A60B16" d="m238.56 254.26-46.9 1.63c-2.54.2-3.87-4.32-3.87-4.32l5.14-4.12 39.67-1.4a4.7 4.7 0 0 0 4.49-4.66l.58-55.86c12.04 8.21 25.29 10.83 41.75 10.26 47.34-1.64 69.1-37.04 69.1-77.44 0-18.85-5.17-37.12-16.29-50.13 15.24 12.99 22.24 34.14 22.24 56.1 0 40.4-21.75 75.77-69.1 77.42-16.46.58-29.7-2.04-41.75-10.25l-.59 55.86c0 2.48-2 6.83-4.47 6.9"/>
    <path fill="#EB6A39" d="m192.93 247.44-5.14 4.13-2.84-2.24-.02-181.67c0-2.55 4.24-6.85 6.74-6.93l46.89-1.64c2.48-.08 4.47 4.07 4.47 6.62v1.43l-45.6 1.59a4.66 4.66 0 0 0-4.5 4.68v174.03"/>
    <path fill="#A60B16" d="m237.1 81.24.14-13.9 5.51-5.33c.37 1.54.18 2.2.28 3.7l-.01 6.07c-.88 1.15-1.59 2.35-2.56 3.8-1.45 2.19-3.36 5.66-3.36 5.66"/>
    <path fill="#EB6A39" d="M384.65 188.79c-16.03-14.55-22.79-32.37-22.79-62.37 0-43.69 36.97-68.65 81.35-65.86 27.37 1.71 44.84 8.51 56.97 22.77-12.26-10.12-28.36-15.05-51.79-16.63-47.35-3.19-80.88 20.2-80.88 63.9 0 26.24 4.81 44.09 17.14 58.19"/>
    <path fill="#A60B16" d="M455.66 92.62c-3.6-2.39-7.98-3.65-13.03-3.64-17.2-.36-22.85 9.52-24.94 22.62l-.52 4.92-6.36-.43.43-6.32c1.62-14.92 7.81-26.22 26.63-25.83 8.22 0 13.5 2.75 17.79 8.68M521.05 142.14c.28 4.49-4.55 9.16-8.08 8.94l-96.48-5.92c1.03 9.9 5.76 22.5 9.58 28.9-10-4.85-16.36-21.92-16.16-34.93l97.12 6.36c3.54.35 9-2.37 8.66-6.55-.81-25-2.59-42-16.2-56.63 17.13 15.05 20.63 31.45 21.56 59.83M514 163.84l.31.15c2.62.18 5.4 5.22 4.4 9.09-3.72 14.37-13.43 22.43-25.82 28.39a88.66 88.66 0 0 1-46.76 10.1c-30.5-1.9-49.2-9.44-62.41-23.82 13.27 10.8 30.7 17.32 56.96 18.97 17.36 1.09 34.04-3.78 46.98-10.65 12.39-5.99 22.42-16.27 26.12-30.66.1-.38.17-1.21.22-1.56M599.23 89l-.01-49.34a5.52 5.52 0 0 1 6.28 5.25v44.45l-6.27-.36"/>
    <path fill="#EB6A39" d="M598.91 39.96c1.94-.25 5.33.7 5.62 2.15L599.22 47l-39.1 7.97c-3.45.66-5.13 1.67-5.13 4.16l.06 25.08-22.78-2.58a3.95 3.95 0 0 0-4.48 3.97l-.02 22.67-4.24-.86a4.98 4.98 0 0 1-1.5-3.5V79.83c0-2.48 2.03-4.67 4.5-4.42L549 78l-.08-23.61c0-2.48 1.9-4.48 5.43-5.18l44.56-9.24"/>
    <path fill="#A60B16" d="m631.54 86.5 1.44.14c2.48.28 8.54-.32 8.54 2.17l2.5 94.29s-33.93 4.7-31.38 10.52c-14.53-2-13.5-21.9-13.5-21.9l-.07-60.3 27.94 2.93a4.02 4.02 0 0 0 4.52-4.02l.01-23.83M630.06 192.21c4.36.16 5.61 2.18 5.61 4.17l.01 26.68c0 2.48-1.8 4.2-5.34 4.34-9.97.41-16.86.02-23.9-.73-23.42-2.46-41.24-6.6-47.76-17.53 10.1 7.75 24.87 10.74 41.31 12.28 10.09.94 14.46 1.27 24.4.44 5.24-.45 5.35-2.29 5.35-4.76l-.02-24.91.34.02M526.52 108.94a6.19 6.19 0 0 1-3.27-1.62l4.52-3.64 27.28 3.02-5.75 4.98-22.78-2.74"/>
    <path fill="#EB6A39" d="M559.69 211.24c-9.82-7.6-11.85-17.27-10.4-37.99v-61.98l5.76-4.58v72.32c.35 9.7.28 16.51 1.03 22.07.52 3.81 1.2 7.03 3.6 10.16M605.38 83.97l27.6 2.93c2.5.25 3.17 1.62 3.17 1.62l-4.6 3.73L599.12 89l6.25-5.03"/>
    <path fill="#A60B16" d="m700.93 220.68.05-122.6 4.62-4.34a6.9 6.9 0 0 1 1.74 3.96v128.94c0 2.49-2.47 4.69-4.93 4.52l-46.87-3.28c-2.5-.19-4.5-2.65-4.5-5.15v-1.05l45.4 3.2a4.13 4.13 0 0 0 4.49-4.2M796.59 97.51v-37.6l6.51-10.05-.57 47.49-5.94.16M746.66 127.34l-24.66.03a4.43 4.43 0 0 1-4.51-4.42v-1.42l34.93-.27-.86 5.83-4.9.25M828.78 92.02l1.44-.02c2.48-.05 6.4 1.8 6.4 4.29l1.82 24.7c0 2.41-3.44 6.05-5.93 6.1l-22.25 2.8-5.76 50.72c0 2.14 1.2 14.33 3.32 19.78-13.01-1.38-11.4-25.87-11.4-25.87l.02-54.67 27.82-.49a4.65 4.65 0 0 0 4.5-4.57l.02-22.77M827.11 198.85c4.36-.37 6.4 1.5 6.4 3.48l.02 25.78c0 2.47-2.6 4.43-6.14 4.98a154.25 154.25 0 0 1-23.9 2.33c-24.45.41-39.52.81-48.58-11.84 10.01 7.23 20.01 7.32 41.15 6.48 8.65-.34 11.83-.49 25.56-2.71 3.53-.57 5.16-2.73 5.16-5.2l-.01-23.28.34-.02"/>
    <path fill="#EB6A39" d="M830.36 92.06c1.11-.02 3.7.57 4.47 1.23l-6.04 4.17-32.2.06 5.97-4.82 27.8-.64M756.1 224.8c-9-6.56-13.08-15.03-11.7-35.05l2.27-62.77 5.76-5.72-.3 71.63c.07 16.25-1.62 23.22 3.98 31.91M796.29 52.81c1.93-4.55 7.15-1.7 7.31-.8l-7 7.9-39.1 7.81c-3.48.6-5.14 2.29-5.14 4.78l.07 27.16-23.53.4a4.54 4.54 0 0 0-4.5 4.51l-.03 16.91-5.06 4.06s-.68-.18-.68-2.66V98.81c0-2.47 2.05-5.08 4.5-5.12l23.28-.4-.07-26.54c0-2.49 1.93-4.82 5.4-5.43l44.55-8.5M919.6 78.68c29.48-3.1 62.57 3.82 68 22.4-15.96-13.7-34.93-17.32-65.4-14-46.15 5.01-82.83 33.37-82.83 84.2 0 18.4 4.57 29.55 12.27 40.06-12.25-10.52-19.65-22.97-19.65-45.05 0-50.85 41.45-82.76 87.62-87.6"/>
    <path fill="#A60B16" d="M986.6 100.73c12.33 10.53 23.26 26.27 23.26 48.43 0 50.84-43.42 81.45-89.59 86.3-29.52 3.1-53.56-6.43-69.08-24.67 15.95 13.64 37.85 16.13 63.9 13.4 46.15-4.85 85.83-31.3 85.83-82.12 0-18.32-5.57-31.06-14.31-41.34"/>
    <path fill="#A60B16" d="M895.9 160.35c0 10.88 5.86 25.12 6.52 33.66-11.6-7.28-15.87-25.83-15.87-39.93 0-19.52 5-43.4 28.52-45.87 10.42-1.09 20.54 5.25 24.85 11.6-3.96-2.6-12.3-4.29-18.83-3.59-23.52 2.48-25.2 24.61-25.2 44.13"/>
    <path fill="#EB6A39" d="M656.8 99.44V222.1l-5 3.39a3.98 3.98 0 0 1-1.03-2.88l.26-128.94c0-2.46 2.02-4.9 4.51-4.73l46.87 3.27c1.33.1 2.46 1.06 3.29 2.05l-4.72 3.8-39.68-2.81a4.15 4.15 0 0 0-4.5 4.2"/>
  </g>
  <path fill-rule="evenodd" clip-rule="evenodd" fill="#86B918" d="M662.1 65.82c-10.7-7.15-24.5-17.38-26.5-37.26-1.05-10.59 7.31-21.26 17.81-23.43 7.56-1.57 15.55 3.47 19.5 9.05A19.48 19.48 0 0 1 687.48 1c9.99-2.07 19.15 1.97 24.05 10.98 3.03 5.54 6.13 17.12-4.04 28.7a290.17 290.17 0 0 0-11.42 14.11c-2.57 3.58-5.21 8.3-9.5 18.6-1.16 2.78-2.28 2.72-3.33 2.43a79.9 79.9 0 0 1-21.14-10"/>
  <g>
    <defs>
      <path id="c" d="M298.74 212.26c17.2.42 34.72 2.65 41.7 3.16 28.84 3.03 61.24 9.62 94.78 14.48 45.46 6.57 322.9 56.68 434.62 40.92 81.15-11.45 121.73-35.83 146.23-80.52 4.7-8.92 6.66-13.13 8.36-19.49.57 3.24-2.68 13.98-5.52 22.52-17.51 52.55-66.67 93.88-157.48 103.86-99.5 10.91-213.75-1.58-332.02-17.62-59.53-8.07-114.86-17.57-164.83-24.79a1436.64 1436.64 0 0 0-65.84-8.21v-34.3"/>
    </defs>
    <clipPath id="d">
      <use xlink:href="#c" overflow="visible"/>
    </clipPath>
    <linearGradient id="e" gradientUnits="userSpaceOnUse" x1="212.91" y1="451.02" x2="225.06" y2="451.02" gradientTransform="matrix(59.811 0 0 -59.811 -12435.92 27215.62)">
      <stop offset="0" style="stop-color:#fff"/>
      <stop offset=".01" style="stop-color:#fff"/>
      <stop offset=".26" style="stop-color:#9ec448"/>
      <stop offset=".6" style="stop-color:#009b32"/>
      <stop offset=".9" style="stop-color:#009b32"/>
      <stop offset="1" style="stop-color:#009b32"/>
    </linearGradient>
    <path clip-path="url(#d)" fill="url(#e)" d="M298.74 170.81H1025V308.1H298.74z"/>
  </g>
  <path fill-rule="evenodd" clip-rule="evenodd" fill="#EB6A39" d="M243.03 71.78c-2.9 4.15-5.92 9.46-5.92 9.46s11.73-13.41 40-20.52c32.9-8.27 55.96 8.5 55.96 8.5s-4.25-5.84-17.17-10.5c-17.69-6.38-44.56-4.19-63.21 6.2-4.18 2.34-8.5 5.2-9.66 6.86"/>
</svg>
